<svg width="12" height="12" viewBox="0 0 12 12" fill="none" xmlns="http://www.w3.org/2000/svg">
<path d="M11.2907 11.3104C10.8703 11.4023 10.4959 11.468 10.1675 11.5074C9.85224 11.5468 9.47785 11.5665 9.04435 11.5665C7.78327 11.5665 6.95568 11.1593 6.56159 10.3448C6.00987 10.7521 5.45814 11.0608 4.90642 11.271C4.35469 11.4811 3.75042 11.5862 3.0936 11.5862C2.50247 11.5862 1.97045 11.4614 1.49754 11.2118C1.02464 10.9623 0.656818 10.6273 0.394092 10.2069C0.131365 9.78655 0 9.32678 0 8.8276C0 7.98688 0.210183 7.32349 0.630545 6.83745C1.06404 6.33827 1.64204 5.94418 2.36454 5.65518C3.08703 5.35305 4.18392 4.9918 5.65519 4.57144L6.24632 4.3941V4.31528C6.24632 3.10674 5.69459 2.50247 4.59114 2.50247C4.05255 2.50247 3.47456 2.62069 2.85715 2.85715C2.23974 3.0936 1.53038 3.47455 0.729068 4.00001L0.0788224 1.63547C0.972092 1.12316 1.87849 0.722498 2.79803 0.433499C3.73071 0.1445 4.71594 0 5.75371 0C7.01479 0 7.98031 0.341544 8.65027 1.02463C9.33335 1.70772 9.6749 2.87685 9.6749 4.53203V8.27588C9.6749 8.56488 9.73401 8.77506 9.85223 8.90642C9.97046 9.02465 10.1609 9.08376 10.4237 9.08376C10.6733 9.08376 10.9228 9.05092 11.1724 8.98524L11.2907 11.3104ZM3.42858 8.3744C3.42858 8.63713 3.49426 8.8276 3.62563 8.94583C3.77013 9.06406 3.99344 9.12317 4.29558 9.12317C4.8473 9.12317 5.49755 8.88672 6.24632 8.41381V6.32514L5.95075 6.42366C4.96553 6.77834 4.29558 7.09361 3.9409 7.36947C3.59935 7.6322 3.42858 7.96717 3.42858 8.3744Z" fill="#3470FF"/>
</svg>
