<svg width="12" height="14" viewBox="0 0 12 14" fill="none" xmlns="http://www.w3.org/2000/svg">
<path d="M7.50741 13.8522C5.8785 13.8522 4.49919 13.537 3.36947 12.9064C2.23974 12.2627 1.39245 11.4155 0.827591 10.3646C0.275866 9.30051 0 8.14452 0 6.89656C0 5.66175 0.289001 4.51889 0.866999 3.46799C1.45813 2.41708 2.3317 1.57636 3.4877 0.945815C4.64369 0.315272 6.03614 0 7.66504 0C9.18886 0 10.5288 0.295567 11.6848 0.886701L10.9754 3.36946C10.4893 3.11987 9.9836 2.92283 9.45815 2.77833C8.9327 2.62069 8.335 2.54188 7.66504 2.54188C6.81118 2.54188 6.06897 2.73892 5.43843 3.13301C4.82103 3.51396 4.34812 4.03942 4.01971 4.70937C3.70444 5.36618 3.5468 6.10182 3.5468 6.91627C3.5468 8.20363 3.88835 9.2611 4.57144 10.0887C5.25453 10.9031 6.23318 11.3104 7.50741 11.3104C8.59772 11.3104 9.77342 11.0411 11.0345 10.5025L11.7045 12.9261C11.1659 13.202 10.5222 13.4253 9.77342 13.5961C9.02465 13.7669 8.26931 13.8522 7.50741 13.8522Z" fill="#3470FF"/>
</svg>
