<svg width="11" height="12" viewBox="0 0 11 12" fill="none" xmlns="http://www.w3.org/2000/svg">
<path d="M3.38917 6.46307C3.45485 7.39575 3.68474 8.0854 4.07883 8.53204C4.47292 8.97867 5.07719 9.20199 5.89164 9.20199C6.49591 9.20199 7.0542 9.0969 7.56652 8.88672C8.09197 8.6634 8.68967 8.33499 9.35962 7.90149L10.2857 10.069C9.58951 10.6338 8.89985 11.0411 8.21676 11.2907C7.53368 11.5403 6.75207 11.665 5.87193 11.665C4.57144 11.665 3.48112 11.4155 2.60099 10.9163C1.72086 10.404 1.06404 9.7143 0.630543 8.84731C0.210181 7.96717 0 6.96881 0 5.85223C0 4.07883 0.499181 2.6601 1.49754 1.59606C2.4959 0.532021 3.95403 0 5.87193 0C7.39575 0 8.55174 0.413794 9.33992 1.24138C10.1412 2.05583 10.5485 3.2184 10.5616 4.72907C10.5616 5.32021 10.4762 5.89821 10.3054 6.46307H3.38917ZM7.23154 4.23646C7.24468 4.15764 7.25125 4.05255 7.25125 3.92119C7.23811 3.3826 7.09361 2.97538 6.81775 2.69951C6.54188 2.41051 6.16093 2.26601 5.67489 2.26601C4.51889 2.26601 3.79639 2.92283 3.5074 4.23646H7.23154Z" fill="#101828"/>
</svg>
