<svg width="13" height="14" viewBox="0 0 13 14" fill="none" xmlns="http://www.w3.org/2000/svg">
<path d="M5.43843 8.47292H3.5468V13.399H0V0H5.35962C7.27752 0 8.67654 0.328408 9.55667 0.985223C10.4368 1.6289 10.8769 2.64697 10.8769 4.03942C10.8769 5.85223 10.2135 7.06734 8.88672 7.68474L12.6503 13.399H8.55174L5.43843 8.47292ZM3.5468 6.00986H5.35962C6.05584 6.00986 6.55502 5.86536 6.85716 5.57636C7.17243 5.28737 7.33006 4.84073 7.33006 4.23646C7.33006 3.60592 7.179 3.15271 6.87686 2.87685C6.57472 2.60099 6.06898 2.46306 5.35962 2.46306H3.5468V6.00986Z" fill="#101828"/>
</svg>
