<svg width="9" height="15" viewBox="0 0 9 15" fill="none" xmlns="http://www.w3.org/2000/svg">
<path d="M8.8079 13.3399C8.41381 13.6158 7.9409 13.8325 7.38918 13.9902C6.85059 14.1347 6.32513 14.2069 5.81282 14.2069C4.42037 14.2069 3.3826 13.9048 2.69951 13.3005C2.01642 12.6831 1.67488 11.803 1.67488 10.6601V5.3005H0V3.86208L2.10838 3.01478L3.05419 0H5.10346V2.87685H8.25617V5.3005H5.10346V9.83253C5.10346 10.5288 5.21512 11.0214 5.43843 11.3104C5.66175 11.5994 5.99673 11.7439 6.44336 11.7439C7.02136 11.7439 7.6322 11.5731 8.27588 11.2315L8.8079 13.3399Z" fill="#101828"/>
</svg>
